<svg width="204" height="249" viewBox="0 0 204 249" fill="none" xmlns="http://www.w3.org/2000/svg">
<g filter="url(#filter0_d)">
<path d="M184.8 6H19.2C15.2236 6 12 9.22355 12 13.2V178.8C12 182.776 15.2236 186 19.2 186H184.8C188.776 186 192 182.776 192 178.8V13.2C192 9.22355 188.776 6 184.8 6Z" fill="#2E2E2E"/>
</g>
<g filter="url(#filter1_d)">
<path d="M125.85 129.263V108.45C125.85 99.45 126.112 91.275 126.637 83.925C127.237 76.5 128.512 69.6375 130.462 63.3375C124.537 62.4375 118.462 61.3875 112.237 60.1875C106.012 58.9125 99.8999 57.7125 93.8999 56.5875C87.9749 55.4625 82.3124 54.525 76.9124 53.775C71.5874 52.95 66.7874 52.5375 62.5124 52.5375C56.7374 52.5375 51.9374 53.025 48.1124 54C44.2874 54.9 41.2124 56.1375 38.8874 57.7125C36.5624 59.2875 34.9124 61.125 33.9374 63.225C33.0374 65.25 32.5874 67.425 32.5874 69.75C32.5874 72.075 33.1124 74.2125 34.1624 76.1625C35.2874 78.1125 36.8624 79.8375 38.8874 81.3375C40.9124 82.7625 43.3124 83.8875 46.0874 84.7125C48.9374 85.5375 52.0874 85.95 55.5374 85.95C59.3624 85.95 62.7374 85.5375 65.6624 84.7125C68.6624 83.8125 71.2124 82.8375 73.3124 81.7875C75.7874 80.5875 77.9624 79.2 79.8374 77.625L82.0874 82.4625C79.7624 84.1875 77.2124 85.725 74.4374 87.075C72.0374 88.275 69.2249 89.3625 65.9999 90.3375C62.8499 91.2375 59.3624 91.6875 55.5374 91.6875C50.5124 91.6875 46.0499 91.0125 42.1499 89.6625C38.3249 88.3125 35.0999 86.5125 32.4749 84.2625C29.8499 81.9375 27.8624 79.2375 26.5124 76.1625C25.1624 73.0875 24.4874 69.825 24.4874 66.375C24.4874 62.7 25.1249 59.1375 26.3999 55.6875C27.5999 52.2375 29.6624 49.1625 32.5874 46.4625C35.4374 43.7625 39.2249 41.625 43.9499 40.05C48.6749 38.4 54.4874 37.575 61.3874 37.575C67.7624 37.575 74.1374 38.1 80.5124 39.15C86.9624 40.125 93.2999 41.3625 99.5249 42.8625C105.825 44.2875 111.937 45.8625 117.862 47.5875C123.862 49.2375 129.6 50.7375 135.075 52.0875C138.3 46.1625 142.312 41.4375 147.112 37.9125C151.912 34.3125 157.125 32.5125 162.75 32.5125C165.15 32.5125 167.287 32.925 169.162 33.75C171.037 34.5 172.612 35.5125 173.887 36.7875C175.162 38.0625 176.1 39.5625 176.7 41.2875C177.375 42.9375 177.712 44.7 177.712 46.575C177.712 49.725 176.962 52.4625 175.462 54.7875C174.037 57.0375 172.05 58.95 169.5 60.525C166.95 62.025 163.95 63.15 160.5 63.9C157.05 64.575 153.337 64.9125 149.362 64.9125C148.462 64.9125 147.525 64.9125 146.55 64.9125C145.65 64.9125 144.75 64.8375 143.85 64.6875C143.25 68.4375 142.762 72.6375 142.387 77.2875C142.087 81.8625 141.937 87.0375 141.937 92.8125V129.263H157.012L154.65 136.125H141.937V163.8C141.937 170.1 141.862 175.613 141.712 180.338C141.562 184.988 141.15 189.15 140.475 192.825C139.8 196.425 138.787 199.688 137.437 202.613C136.087 205.463 134.212 208.275 131.812 211.05C127.687 215.775 121.95 219.638 114.6 222.638C107.25 225.638 98.3249 227.138 87.8249 227.138C81.3749 227.138 75.2249 226.238 69.3749 224.438C63.5249 222.638 58.3874 220.125 53.9624 216.9C49.5374 213.675 46.0124 209.813 43.3874 205.313C40.7624 200.813 39.4499 195.825 39.4499 190.35C39.4499 186.3 40.0874 182.663 41.3624 179.438C42.7124 176.213 44.4374 173.363 46.5374 170.888C48.6374 168.338 50.9249 166.163 53.3999 164.363C55.9499 162.563 58.4249 161.063 60.8249 159.863C63.2249 158.663 65.3999 157.725 67.3499 157.05C69.2999 156.375 70.7624 155.925 71.7374 155.7L73.9874 160.313C72.2624 161.213 70.3124 162.45 68.1374 164.025C66.0374 165.525 64.0499 167.475 62.1749 169.875C60.2999 172.2 58.7249 175.05 57.4499 178.425C56.1749 181.8 55.5374 185.775 55.5374 190.35C55.5374 195.225 56.3624 199.613 58.0124 203.513C59.6624 207.338 61.9499 210.6 64.8749 213.3C67.8749 215.925 71.3999 217.95 75.4499 219.375C79.5749 220.725 84.0749 221.4 88.9499 221.4C94.4249 221.4 99.4124 220.65 103.912 219.15C108.487 217.65 112.387 215.138 115.612 211.613C118.837 208.088 121.35 203.4 123.15 197.55C124.95 191.7 125.85 184.425 125.85 175.725V136.125H104.025L106.275 129.263H125.85ZM162.75 38.7C159.375 38.7 156.262 39.9375 153.412 42.4125C150.562 44.8125 148.2 48.9375 146.325 54.7875C148.65 55.1625 150.9 55.4625 153.075 55.6875C155.25 55.9125 157.312 56.025 159.262 56.025C161.287 56.025 163.012 55.7625 164.437 55.2375C165.937 54.6375 167.137 53.8875 168.037 52.9875C168.937 52.0875 169.612 51.075 170.062 49.95C170.512 48.825 170.737 47.7 170.737 46.575C170.737 44.4 169.987 42.5625 168.487 41.0625C166.987 39.4875 165.075 38.7 162.75 38.7Z" fill="white"/>
<path d="M125.85 129.263V132.263H128.85V129.263H125.85ZM126.637 83.925L123.647 83.6834L123.646 83.6973L123.645 83.7113L126.637 83.925ZM130.462 63.3375L133.328 64.2246L134.359 60.895L130.913 60.3716L130.462 63.3375ZM112.237 60.1875L111.635 63.1265L111.653 63.13L111.67 63.1333L112.237 60.1875ZM93.8999 56.5875L93.3403 59.5349L93.3471 59.5361L93.8999 56.5875ZM76.9124 53.775L76.4531 56.7397L76.4764 56.7433L76.4997 56.7465L76.9124 53.775ZM48.1124 54L48.7996 56.9203L48.8266 56.9139L48.8535 56.9071L48.1124 54ZM38.8874 57.7125L37.2049 55.2288L38.8874 57.7125ZM33.9374 63.225L31.2164 61.9617L31.206 61.9841L31.196 62.0066L33.9374 63.225ZM34.1624 76.1625L31.521 77.5848L31.5419 77.6236L31.5639 77.6617L34.1624 76.1625ZM38.8874 81.3375L37.1018 83.7482L37.1311 83.7699L37.161 83.791L38.8874 81.3375ZM46.0874 84.7125L45.2325 87.5881L45.2429 87.5912L45.2533 87.5942L46.0874 84.7125ZM65.6624 84.7125L66.4768 87.5999L66.5007 87.5931L66.5245 87.586L65.6624 84.7125ZM73.3124 81.7875L72.0036 79.0881L71.9872 79.0961L71.9708 79.1043L73.3124 81.7875ZM79.8374 77.625L82.5576 76.3598L80.9062 72.8093L77.9079 75.3279L79.8374 77.625ZM82.0874 82.4625L83.875 84.8718L85.8389 83.4147L84.8076 81.1973L82.0874 82.4625ZM74.4374 87.075L73.125 84.3773L73.1104 84.3845L73.0958 84.3918L74.4374 87.075ZM65.9999 90.3375L66.8241 93.2221L66.8462 93.2158L66.8681 93.2092L65.9999 90.3375ZM42.1499 89.6625L41.1515 92.4915L41.16 92.4945L41.1686 92.4975L42.1499 89.6625ZM32.4749 84.2625L30.4858 86.5083L30.5041 86.5245L30.5226 86.5403L32.4749 84.2625ZM26.3999 55.6875L29.2139 56.7275L29.2239 56.7004L29.2334 56.6731L26.3999 55.6875ZM32.5874 46.4625L34.6223 48.6669L34.6366 48.6538L34.6507 48.6404L32.5874 46.4625ZM43.9499 40.05L44.8986 42.8961L44.9189 42.8893L44.939 42.8823L43.9499 40.05ZM80.5124 39.15L80.0249 42.1101L80.0445 42.1134L80.0641 42.1163L80.5124 39.15ZM99.5249 42.8625L98.8222 45.7791L98.8426 45.784L98.8631 45.7886L99.5249 42.8625ZM117.862 47.5875L117.024 50.4679L117.045 50.4742L117.067 50.4801L117.862 47.5875ZM135.075 52.0875L134.357 55.0003L136.604 55.5543L137.71 53.5218L135.075 52.0875ZM147.112 37.9125L148.888 40.3305L148.9 40.3216L148.912 40.3125L147.112 37.9125ZM169.162 33.75L167.954 36.496L168.001 36.5165L168.048 36.5355L169.162 33.75ZM176.7 41.2875L173.866 42.2731L173.893 42.349L173.923 42.4234L176.7 41.2875ZM175.462 54.7875L172.942 53.1612L172.935 53.1717L172.928 53.1824L175.462 54.7875ZM169.5 60.525L171.021 63.1108L171.049 63.0944L171.076 63.0774L169.5 60.525ZM160.5 63.9L161.076 66.8442L161.107 66.8382L161.137 66.8316L160.5 63.9ZM143.85 64.6875L144.343 61.7284L141.365 61.2319L140.888 64.2136L143.85 64.6875ZM142.387 77.2875L139.397 77.0464L139.395 77.0688L139.394 77.0912L142.387 77.2875ZM141.937 129.263H138.937V132.263H141.937V129.263ZM157.012 129.263L159.849 130.239L161.218 126.263H157.012V129.263ZM154.65 136.125V139.125H156.79L157.487 137.102L154.65 136.125ZM141.937 136.125V133.125H138.937V136.125H141.937ZM141.712 180.338L144.711 180.434V180.433L141.712 180.338ZM140.475 192.825L143.424 193.378L143.426 193.367L140.475 192.825ZM137.437 202.613L140.149 203.897L140.155 203.883L140.161 203.87L137.437 202.613ZM131.812 211.05L134.072 213.023L134.082 213.012L131.812 211.05ZM41.3624 179.438L38.5951 178.279L38.5836 178.307L38.5726 178.335L41.3624 179.438ZM46.5374 170.888L48.825 172.828L48.8392 172.812L48.8532 172.795L46.5374 170.888ZM53.3999 164.363L51.6699 161.912L51.6526 161.924L51.6354 161.936L53.3999 164.363ZM67.3499 157.05L66.3686 154.215L67.3499 157.05ZM71.7374 155.7L74.4338 154.385L73.3877 152.24L71.0629 152.777L71.7374 155.7ZM73.9874 160.313L75.3751 162.972L77.9639 161.622L76.6838 158.997L73.9874 160.313ZM68.1374 164.025L69.8812 166.466L69.8891 166.461L69.897 166.455L68.1374 164.025ZM62.1749 169.875L64.5102 171.758L64.5247 171.74L64.539 171.722L62.1749 169.875ZM58.0124 203.513L55.2495 204.681L55.2536 204.691L55.2578 204.701L58.0124 203.513ZM64.8749 213.3L62.8401 215.504L62.8694 215.532L62.8994 215.558L64.8749 213.3ZM75.4499 219.375L74.4542 222.205L74.4854 222.216L74.5168 222.226L75.4499 219.375ZM103.912 219.15L102.978 216.299L102.971 216.302L102.964 216.304L103.912 219.15ZM125.85 136.125H128.85V133.125H125.85V136.125ZM104.025 136.125L101.174 135.19L99.8842 139.125H104.025V136.125ZM106.275 129.263V126.263H104.101L103.424 128.328L106.275 129.263ZM153.412 42.4125L155.345 44.7073L155.362 44.6926L155.38 44.6776L153.412 42.4125ZM146.325 54.7875L143.468 53.8719L142.403 57.1938L145.847 57.7493L146.325 54.7875ZM164.437 55.2375L165.475 58.0526L165.513 58.0383L165.552 58.023L164.437 55.2375ZM168.487 41.0625L166.315 43.1315L166.34 43.158L166.366 43.1839L168.487 41.0625ZM128.85 129.263V108.45H122.85V129.263H128.85ZM128.85 108.45C128.85 99.5064 129.111 91.4042 129.63 84.1388L123.645 83.7113C123.114 91.1459 122.85 99.3937 122.85 108.45H128.85ZM129.628 84.1667C130.212 76.933 131.451 70.2897 133.328 64.2246L127.597 62.4505C125.574 68.9854 124.263 76.0671 123.647 83.6834L129.628 84.1667ZM130.913 60.3716C125.029 59.4778 118.994 58.4347 112.805 57.2418L111.67 63.1333C117.931 64.3404 124.046 65.3972 130.012 66.3035L130.913 60.3716ZM112.839 57.2485C106.599 55.9703 100.47 54.7671 94.4528 53.6389L93.3471 59.5361C99.33 60.658 105.426 61.8547 111.635 63.1265L112.839 57.2485ZM94.4596 53.6402C88.4908 52.5069 82.7792 51.5611 77.3252 50.8036L76.4997 56.7465C81.8457 57.489 87.459 58.4182 93.3403 59.5349L94.4596 53.6402ZM77.3718 50.8104C71.932 49.9676 66.9748 49.5375 62.5124 49.5375V55.5375C66.6001 55.5375 71.2429 55.9324 76.4531 56.7397L77.3718 50.8104ZM62.5124 49.5375C56.5915 49.5375 51.522 50.035 47.3714 51.093L48.8535 56.9071C52.3528 56.0151 56.8834 55.5375 62.5124 55.5375V49.5375ZM47.4253 51.0798C43.3761 52.0325 39.927 53.3848 37.2049 55.2288L40.57 60.1963C42.4979 58.8903 45.1988 57.7675 48.7996 56.9203L47.4253 51.0798ZM37.2049 55.2288C34.5255 57.0439 32.4649 59.2727 31.2164 61.9617L36.6585 64.4884C37.36 62.9773 38.5994 61.5312 40.57 60.1963L37.2049 55.2288ZM31.196 62.0066C30.1172 64.434 29.5874 67.0264 29.5874 69.75H35.5874C35.5874 67.8237 35.9577 66.0661 36.6789 64.4435L31.196 62.0066ZM29.5874 69.75C29.5874 72.5459 30.2238 75.1757 31.521 77.5848L36.8039 74.7402C36.0011 73.2493 35.5874 71.6041 35.5874 69.75H29.5874ZM31.5639 77.6617C32.9177 80.0083 34.7857 82.0326 37.1018 83.7482L40.6731 78.9269C38.9392 77.6425 37.6572 76.2167 36.761 74.6634L31.5639 77.6617ZM37.161 83.791C39.4923 85.4315 42.1975 86.6859 45.2325 87.5881L46.9424 81.8369C44.4273 81.0892 42.3326 80.0935 40.6139 78.8841L37.161 83.791ZM45.2533 87.5942C48.4142 88.5092 51.85 88.95 55.5374 88.95V82.95C52.3249 82.95 49.4606 82.5658 46.9216 81.8308L45.2533 87.5942ZM55.5374 88.95C59.5702 88.95 63.2288 88.516 66.4768 87.5999L64.8481 81.8252C62.2461 82.5591 59.1547 82.95 55.5374 82.95V88.95ZM66.5245 87.586C69.6386 86.6518 72.3588 85.6185 74.6541 84.4708L71.9708 79.1043C70.0661 80.0566 67.6863 80.9733 64.8004 81.8391L66.5245 87.586ZM74.6213 84.487C77.2921 83.192 79.6809 81.6745 81.767 79.9221L77.9079 75.3279C76.244 76.7256 74.2828 77.983 72.0036 79.0881L74.6213 84.487ZM77.1173 78.8902L79.3673 83.7277L84.8076 81.1973L82.5576 76.3598L77.1173 78.8902ZM80.2999 80.0532C78.1334 81.6606 75.744 83.1033 73.125 84.3773L75.7498 89.7727C78.6809 88.3468 81.3914 86.7145 83.875 84.8718L80.2999 80.0532ZM73.0958 84.3918C70.8807 85.4993 68.2331 86.5283 65.1318 87.4659L66.8681 93.2092C70.2168 92.1968 73.1942 91.0508 75.7791 89.7583L73.0958 84.3918ZM65.1758 87.453C62.3342 88.2648 59.1291 88.6875 55.5374 88.6875V94.6875C59.5958 94.6875 63.3657 94.2102 66.8241 93.2221L65.1758 87.453ZM55.5374 88.6875C50.7763 88.6875 46.6555 88.0475 43.1313 86.8276L41.1686 92.4975C45.4444 93.9776 50.2486 94.6875 55.5374 94.6875V88.6875ZM43.1484 86.8336C39.6133 85.5859 36.7269 83.9559 34.4273 81.9848L30.5226 86.5403C33.473 89.0692 37.0366 91.0392 41.1515 92.4915L43.1484 86.8336ZM34.4641 82.0168C32.1492 79.9665 30.4272 77.6166 29.2594 74.9566L23.7655 77.3685C25.2977 80.8584 27.5507 83.9086 30.4858 86.5083L34.4641 82.0168ZM29.2594 74.9566C28.0809 72.2722 27.4874 69.4215 27.4874 66.375H21.4874C21.4874 70.2286 22.244 73.9028 23.7655 77.3685L29.2594 74.9566ZM27.4874 66.375C27.4874 63.0553 28.0619 59.8448 29.2139 56.7275L23.586 54.6476C22.188 58.4302 21.4874 62.3448 21.4874 66.375H27.4874ZM29.2334 56.6731C30.2572 53.7298 32.0263 51.0632 34.6223 48.6669L30.5526 44.2581C27.2985 47.2619 24.9427 50.7452 23.5665 54.702L29.2334 56.6731ZM34.6507 48.6404C37.109 46.3115 40.4814 44.3685 44.8986 42.8961L43.0013 37.204C37.9685 38.8816 33.7659 41.2136 30.5242 44.2847L34.6507 48.6404ZM44.939 42.8823C49.2509 41.3766 54.706 40.575 61.3874 40.575V34.575C54.2689 34.575 48.099 35.4235 42.9609 37.2178L44.939 42.8823ZM61.3874 40.575C67.5969 40.575 73.8089 41.0863 80.0249 42.1101L81 36.1899C74.466 35.1137 67.928 34.575 61.3874 34.575V40.575ZM80.0641 42.1163C86.4302 43.0787 92.6828 44.2997 98.8222 45.7791L100.228 39.946C93.9171 38.4254 87.4947 37.1714 80.9608 36.1837L80.0641 42.1163ZM98.8631 45.7886C105.106 47.2008 111.16 48.7607 117.024 50.4679L118.701 44.7071C112.715 42.9643 106.543 41.3743 100.187 39.9365L98.8631 45.7886ZM117.067 50.4801C123.09 52.1365 128.853 53.6433 134.357 55.0003L135.793 49.1748C130.346 47.8318 124.635 46.3386 118.658 44.6949L117.067 50.4801ZM137.71 53.5218C140.752 47.9323 144.488 43.5621 148.888 40.3305L145.337 35.4945C140.137 39.313 135.848 44.3928 132.44 50.6533L137.71 53.5218ZM148.912 40.3125C153.23 37.0744 157.819 35.5125 162.75 35.5125V29.5125C156.431 29.5125 150.595 31.5507 145.312 35.5125L148.912 40.3125ZM162.75 35.5125C164.805 35.5125 166.52 35.8648 167.954 36.496L170.371 31.0041C168.055 29.9853 165.495 29.5125 162.75 29.5125V35.5125ZM168.048 36.5355C169.591 37.1527 170.811 37.9537 171.766 38.9089L176.009 34.6662C174.414 33.0713 172.484 31.8474 170.277 30.9646L168.048 36.5355ZM171.766 38.9089C172.717 39.8596 173.413 40.9698 173.866 42.2731L179.533 40.302C178.787 38.1552 177.608 36.2655 176.009 34.6662L171.766 38.9089ZM173.923 42.4234C174.443 43.6944 174.712 45.0691 174.712 46.575H180.712C180.712 44.331 180.307 42.1807 179.477 40.1516L173.923 42.4234ZM174.712 46.575C174.712 49.2302 174.087 51.3856 172.942 53.1612L177.983 56.4139C179.838 53.5395 180.712 50.2198 180.712 46.575H174.712ZM172.928 53.1824C171.775 55.0023 170.135 56.6065 167.923 57.9726L171.076 63.0774C173.965 61.2936 176.3 59.0727 177.997 56.3927L172.928 53.1824ZM167.979 57.9392C165.75 59.2501 163.06 60.2734 159.863 60.9685L161.137 66.8316C164.84 66.0266 168.149 64.8 171.021 63.1108L167.979 57.9392ZM159.924 60.9559C156.686 61.5893 153.169 61.9125 149.362 61.9125V67.9125C153.506 67.9125 157.413 67.5608 161.076 66.8442L159.924 60.9559ZM149.362 61.9125C149.361 61.9125 149.359 61.9125 149.357 61.9125C149.355 61.9125 149.354 61.9125 149.352 61.9125C149.35 61.9125 149.348 61.9125 149.347 61.9125C149.345 61.9125 149.343 61.9125 149.341 61.9125C149.34 61.9125 149.338 61.9125 149.336 61.9125C149.334 61.9125 149.333 61.9125 149.331 61.9125C149.329 61.9125 149.327 61.9125 149.326 61.9125C149.324 61.9125 149.322 61.9125 149.32 61.9125C149.318 61.9125 149.317 61.9125 149.315 61.9125C149.313 61.9125 149.311 61.9125 149.31 61.9125C149.308 61.9125 149.306 61.9125 149.304 61.9125C149.303 61.9125 149.301 61.9125 149.299 61.9125C149.297 61.9125 149.296 61.9125 149.294 61.9125C149.292 61.9125 149.29 61.9125 149.289 61.9125C149.287 61.9125 149.285 61.9125 149.283 61.9125C149.281 61.9125 149.28 61.9125 149.278 61.9125C149.276 61.9125 149.274 61.9125 149.273 61.9125C149.271 61.9125 149.269 61.9125 149.267 61.9125C149.266 61.9125 149.264 61.9125 149.262 61.9125C149.26 61.9125 149.259 61.9125 149.257 61.9125C149.255 61.9125 149.253 61.9125 149.252 61.9125C149.25 61.9125 149.248 61.9125 149.246 61.9125C149.244 61.9125 149.243 61.9125 149.241 61.9125C149.239 61.9125 149.237 61.9125 149.236 61.9125C149.234 61.9125 149.232 61.9125 149.23 61.9125C149.229 61.9125 149.227 61.9125 149.225 61.9125C149.223 61.9125 149.222 61.9125 149.22 61.9125C149.218 61.9125 149.216 61.9125 149.214 61.9125C149.213 61.9125 149.211 61.9125 149.209 61.9125C149.207 61.9125 149.206 61.9125 149.204 61.9125C149.202 61.9125 149.2 61.9125 149.199 61.9125C149.197 61.9125 149.195 61.9125 149.193 61.9125C149.191 61.9125 149.19 61.9125 149.188 61.9125C149.186 61.9125 149.184 61.9125 149.183 61.9125C149.181 61.9125 149.179 61.9125 149.177 61.9125C149.176 61.9125 149.174 61.9125 149.172 61.9125C149.17 61.9125 149.169 61.9125 149.167 61.9125C149.165 61.9125 149.163 61.9125 149.161 61.9125C149.16 61.9125 149.158 61.9125 149.156 61.9125C149.154 61.9125 149.153 61.9125 149.151 61.9125C149.149 61.9125 149.147 61.9125 149.146 61.9125C149.144 61.9125 149.142 61.9125 149.14 61.9125C149.138 61.9125 149.137 61.9125 149.135 61.9125C149.133 61.9125 149.131 61.9125 149.13 61.9125C149.128 61.9125 149.126 61.9125 149.124 61.9125C149.123 61.9125 149.121 61.9125 149.119 61.9125C149.117 61.9125 149.115 61.9125 149.114 61.9125C149.112 61.9125 149.11 61.9125 149.108 61.9125C149.107 61.9125 149.105 61.9125 149.103 61.9125C149.101 61.9125 149.099 61.9125 149.098 61.9125C149.096 61.9125 149.094 61.9125 149.092 61.9125C149.091 61.9125 149.089 61.9125 149.087 61.9125C149.085 61.9125 149.084 61.9125 149.082 61.9125C149.08 61.9125 149.078 61.9125 149.076 61.9125C149.075 61.9125 149.073 61.9125 149.071 61.9125C149.069 61.9125 149.068 61.9125 149.066 61.9125C149.064 61.9125 149.062 61.9125 149.06 61.9125C149.059 61.9125 149.057 61.9125 149.055 61.9125C149.053 61.9125 149.052 61.9125 149.05 61.9125C149.048 61.9125 149.046 61.9125 149.045 61.9125C149.043 61.9125 149.041 61.9125 149.039 61.9125C149.037 61.9125 149.036 61.9125 149.034 61.9125C149.032 61.9125 149.03 61.9125 149.029 61.9125C149.027 61.9125 149.025 61.9125 149.023 61.9125C149.021 61.9125 149.02 61.9125 149.018 61.9125C149.016 61.9125 149.014 61.9125 149.013 61.9125C149.011 61.9125 149.009 61.9125 149.007 61.9125C149.005 61.9125 149.004 61.9125 149.002 61.9125C149 61.9125 148.998 61.9125 148.997 61.9125C148.995 61.9125 148.993 61.9125 148.991 61.9125C148.989 61.9125 148.988 61.9125 148.986 61.9125C148.984 61.9125 148.982 61.9125 148.981 61.9125C148.979 61.9125 148.977 61.9125 148.975 61.9125C148.973 61.9125 148.972 61.9125 148.97 61.9125C148.968 61.9125 148.966 61.9125 148.965 61.9125C148.963 61.9125 148.961 61.9125 148.959 61.9125C148.957 61.9125 148.956 61.9125 148.954 61.9125C148.952 61.9125 148.95 61.9125 148.949 61.9125C148.947 61.9125 148.945 61.9125 148.943 61.9125C148.941 61.9125 148.94 61.9125 148.938 61.9125C148.936 61.9125 148.934 61.9125 148.932 61.9125C148.931 61.9125 148.929 61.9125 148.927 61.9125C148.925 61.9125 148.924 61.9125 148.922 61.9125C148.92 61.9125 148.918 61.9125 148.916 61.9125C148.915 61.9125 148.913 61.9125 148.911 61.9125C148.909 61.9125 148.908 61.9125 148.906 61.9125C148.904 61.9125 148.902 61.9125 148.9 61.9125C148.899 61.9125 148.897 61.9125 148.895 61.9125C148.893 61.9125 148.891 61.9125 148.89 61.9125C148.888 61.9125 148.886 61.9125 148.884 61.9125C148.883 61.9125 148.881 61.9125 148.879 61.9125C148.877 61.9125 148.875 61.9125 148.874 61.9125C148.872 61.9125 148.87 61.9125 148.868 61.9125C148.867 61.9125 148.865 61.9125 148.863 61.9125C148.861 61.9125 148.859 61.9125 148.858 61.9125C148.856 61.9125 148.854 61.9125 148.852 61.9125C148.85 61.9125 148.849 61.9125 148.847 61.9125C148.845 61.9125 148.843 61.9125 148.842 61.9125C148.84 61.9125 148.838 61.9125 148.836 61.9125C148.834 61.9125 148.833 61.9125 148.831 61.9125C148.829 61.9125 148.827 61.9125 148.825 61.9125C148.824 61.9125 148.822 61.9125 148.82 61.9125C148.818 61.9125 148.817 61.9125 148.815 61.9125C148.813 61.9125 148.811 61.9125 148.809 61.9125C148.808 61.9125 148.806 61.9125 148.804 61.9125C148.802 61.9125 148.8 61.9125 148.799 61.9125C148.797 61.9125 148.795 61.9125 148.793 61.9125C148.791 61.9125 148.79 61.9125 148.788 61.9125C148.786 61.9125 148.784 61.9125 148.783 61.9125C148.781 61.9125 148.779 61.9125 148.777 61.9125C148.775 61.9125 148.774 61.9125 148.772 61.9125C148.77 61.9125 148.768 61.9125 148.766 61.9125C148.765 61.9125 148.763 61.9125 148.761 61.9125C148.759 61.9125 148.757 61.9125 148.756 61.9125C148.754 61.9125 148.752 61.9125 148.75 61.9125C148.749 61.9125 148.747 61.9125 148.745 61.9125C148.743 61.9125 148.741 61.9125 148.74 61.9125C148.738 61.9125 148.736 61.9125 148.734 61.9125C148.732 61.9125 148.731 61.9125 148.729 61.9125C148.727 61.9125 148.725 61.9125 148.723 61.9125C148.722 61.9125 148.72 61.9125 148.718 61.9125C148.716 61.9125 148.714 61.9125 148.713 61.9125C148.711 61.9125 148.709 61.9125 148.707 61.9125C148.706 61.9125 148.704 61.9125 148.702 61.9125C148.7 61.9125 148.698 61.9125 148.697 61.9125C148.695 61.9125 148.693 61.9125 148.691 61.9125C148.689 61.9125 148.688 61.9125 148.686 61.9125C148.684 61.9125 148.682 61.9125 148.68 61.9125C148.679 61.9125 148.677 61.9125 148.675 61.9125C148.673 61.9125 148.671 61.9125 148.67 61.9125C148.668 61.9125 148.666 61.9125 148.664 61.9125C148.662 61.9125 148.661 61.9125 148.659 61.9125C148.657 61.9125 148.655 61.9125 148.653 61.9125C148.652 61.9125 148.65 61.9125 148.648 61.9125C148.646 61.9125 148.645 61.9125 148.643 61.9125C148.641 61.9125 148.639 61.9125 148.637 61.9125C148.636 61.9125 148.634 61.9125 148.632 61.9125C148.63 61.9125 148.628 61.9125 148.627 61.9125C148.625 61.9125 148.623 61.9125 148.621 61.9125C148.619 61.9125 148.618 61.9125 148.616 61.9125C148.614 61.9125 148.612 61.9125 148.61 61.9125C148.609 61.9125 148.607 61.9125 148.605 61.9125C148.603 61.9125 148.601 61.9125 148.6 61.9125C148.598 61.9125 148.596 61.9125 148.594 61.9125C148.592 61.9125 148.591 61.9125 148.589 61.9125C148.587 61.9125 148.585 61.9125 148.583 61.9125C148.582 61.9125 148.58 61.9125 148.578 61.9125C148.576 61.9125 148.574 61.9125 148.573 61.9125C148.571 61.9125 148.569 61.9125 148.567 61.9125C148.565 61.9125 148.564 61.9125 148.562 61.9125C148.56 61.9125 148.558 61.9125 148.556 61.9125C148.555 61.9125 148.553 61.9125 148.551 61.9125C148.549 61.9125 148.547 61.9125 148.546 61.9125C148.544 61.9125 148.542 61.9125 148.54 61.9125C148.538 61.9125 148.537 61.9125 148.535 61.9125C148.533 61.9125 148.531 61.9125 148.529 61.9125C148.528 61.9125 148.526 61.9125 148.524 61.9125C148.522 61.9125 148.52 61.9125 148.519 61.9125C148.517 61.9125 148.515 61.9125 148.513 61.9125C148.511 61.9125 148.51 61.9125 148.508 61.9125C148.506 61.9125 148.504 61.9125 148.502 61.9125C148.5 61.9125 148.499 61.9125 148.497 61.9125C148.495 61.9125 148.493 61.9125 148.491 61.9125C148.49 61.9125 148.488 61.9125 148.486 61.9125C148.484 61.9125 148.482 61.9125 148.481 61.9125C148.479 61.9125 148.477 61.9125 148.475 61.9125C148.473 61.9125 148.472 61.9125 148.47 61.9125C148.468 61.9125 148.466 61.9125 148.464 61.9125C148.463 61.9125 148.461 61.9125 148.459 61.9125C148.457 61.9125 148.455 61.9125 148.454 61.9125C148.452 61.9125 148.45 61.9125 148.448 61.9125C148.446 61.9125 148.445 61.9125 148.443 61.9125C148.441 61.9125 148.439 61.9125 148.437 61.9125C148.435 61.9125 148.434 61.9125 148.432 61.9125C148.43 61.9125 148.428 61.9125 148.426 61.9125C148.425 61.9125 148.423 61.9125 148.421 61.9125C148.419 61.9125 148.417 61.9125 148.416 61.9125C148.414 61.9125 148.412 61.9125 148.41 61.9125C148.408 61.9125 148.407 61.9125 148.405 61.9125C148.403 61.9125 148.401 61.9125 148.399 61.9125C148.398 61.9125 148.396 61.9125 148.394 61.9125C148.392 61.9125 148.39 61.9125 148.388 61.9125C148.387 61.9125 148.385 61.9125 148.383 61.9125C148.381 61.9125 148.379 61.9125 148.378 61.9125C148.376 61.9125 148.374 61.9125 148.372 61.9125C148.37 61.9125 148.369 61.9125 148.367 61.9125C148.365 61.9125 148.363 61.9125 148.361 61.9125C148.359 61.9125 148.358 61.9125 148.356 61.9125C148.354 61.9125 148.352 61.9125 148.35 61.9125C148.349 61.9125 148.347 61.9125 148.345 61.9125C148.343 61.9125 148.341 61.9125 148.34 61.9125C148.338 61.9125 148.336 61.9125 148.334 61.9125C148.332 61.9125 148.331 61.9125 148.329 61.9125C148.327 61.9125 148.325 61.9125 148.323 61.9125C148.321 61.9125 148.32 61.9125 148.318 61.9125C148.316 61.9125 148.314 61.9125 148.312 61.9125C148.311 61.9125 148.309 61.9125 148.307 61.9125C148.305 61.9125 148.303 61.9125 148.301 61.9125C148.3 61.9125 148.298 61.9125 148.296 61.9125C148.294 61.9125 148.292 61.9125 148.291 61.9125C148.289 61.9125 148.287 61.9125 148.285 61.9125C148.283 61.9125 148.282 61.9125 148.28 61.9125C148.278 61.9125 148.276 61.9125 148.274 61.9125C148.272 61.9125 148.271 61.9125 148.269 61.9125C148.267 61.9125 148.265 61.9125 148.263 61.9125C148.262 61.9125 148.26 61.9125 148.258 61.9125C148.256 61.9125 148.254 61.9125 148.252 61.9125C148.251 61.9125 148.249 61.9125 148.247 61.9125C148.245 61.9125 148.243 61.9125 148.242 61.9125C148.24 61.9125 148.238 61.9125 148.236 61.9125C148.234 61.9125 148.232 61.9125 148.231 61.9125C148.229 61.9125 148.227 61.9125 148.225 61.9125C148.223 61.9125 148.222 61.9125 148.22 61.9125C148.218 61.9125 148.216 61.9125 148.214 61.9125C148.212 61.9125 148.211 61.9125 148.209 61.9125C148.207 61.9125 148.205 61.9125 148.203 61.9125C148.202 61.9125 148.2 61.9125 148.198 61.9125C148.196 61.9125 148.194 61.9125 148.192 61.9125C148.191 61.9125 148.189 61.9125 148.187 61.9125C148.185 61.9125 148.183 61.9125 148.182 61.9125C148.18 61.9125 148.178 61.9125 148.176 61.9125C148.174 61.9125 148.172 61.9125 148.171 61.9125C148.169 61.9125 148.167 61.9125 148.165 61.9125C148.163 61.9125 148.161 61.9125 148.16 61.9125C148.158 61.9125 148.156 61.9125 148.154 61.9125C148.152 61.9125 148.151 61.9125 148.149 61.9125C148.147 61.9125 148.145 61.9125 148.143 61.9125C148.141 61.9125 148.14 61.9125 148.138 61.9125C148.136 61.9125 148.134 61.9125 148.132 61.9125C148.131 61.9125 148.129 61.9125 148.127 61.9125C148.125 61.9125 148.123 61.9125 148.121 61.9125C148.12 61.9125 148.118 61.9125 148.116 61.9125C148.114 61.9125 148.112 61.9125 148.11 61.9125C148.109 61.9125 148.107 61.9125 148.105 61.9125C148.103 61.9125 148.101 61.9125 148.099 61.9125C148.098 61.9125 148.096 61.9125 148.094 61.9125C148.092 61.9125 148.09 61.9125 148.089 61.9125C148.087 61.9125 148.085 61.9125 148.083 61.9125C148.081 61.9125 148.079 61.9125 148.078 61.9125C148.076 61.9125 148.074 61.9125 148.072 61.9125C148.07 61.9125 148.068 61.9125 148.067 61.9125C148.065 61.9125 148.063 61.9125 148.061 61.9125C148.059 61.9125 148.057 61.9125 148.056 61.9125C148.054 61.9125 148.052 61.9125 148.05 61.9125C148.048 61.9125 148.047 61.9125 148.045 61.9125C148.043 61.9125 148.041 61.9125 148.039 61.9125C148.037 61.9125 148.036 61.9125 148.034 61.9125C148.032 61.9125 148.03 61.9125 148.028 61.9125C148.026 61.9125 148.025 61.9125 148.023 61.9125C148.021 61.9125 148.019 61.9125 148.017 61.9125C148.015 61.9125 148.014 61.9125 148.012 61.9125C148.01 61.9125 148.008 61.9125 148.006 61.9125C148.004 61.9125 148.003 61.9125 148.001 61.9125C147.999 61.9125 147.997 61.9125 147.995 61.9125C147.993 61.9125 147.992 61.9125 147.99 61.9125C147.988 61.9125 147.986 61.9125 147.984 61.9125C147.982 61.9125 147.981 61.9125 147.979 61.9125C147.977 61.9125 147.975 61.9125 147.973 61.9125C147.972 61.9125 147.97 61.9125 147.968 61.9125C147.966 61.9125 147.964 61.9125 147.962 61.9125C147.961 61.9125 147.959 61.9125 147.957 61.9125C147.955 61.9125 147.953 61.9125 147.951 61.9125C147.95 61.9125 147.948 61.9125 147.946 61.9125C147.944 61.9125 147.942 61.9125 147.94 61.9125C147.939 61.9125 147.937 61.9125 147.935 61.9125C147.933 61.9125 147.931 61.9125 147.929 61.9125C147.928 61.9125 147.926 61.9125 147.924 61.9125C147.922 61.9125 147.92 61.9125 147.918 61.9125C147.917 61.9125 147.915 61.9125 147.913 61.9125C147.911 61.9125 147.909 61.9125 147.907 61.9125C147.906 61.9125 147.904 61.9125 147.902 61.9125C147.9 61.9125 147.898 61.9125 147.896 61.9125C147.894 61.9125 147.893 61.9125 147.891 61.9125C147.889 61.9125 147.887 61.9125 147.885 61.9125C147.883 61.9125 147.882 61.9125 147.88 61.9125C147.878 61.9125 147.876 61.9125 147.874 61.9125C147.872 61.9125 147.871 61.9125 147.869 61.9125C147.867 61.9125 147.865 61.9125 147.863 61.9125C147.861 61.9125 147.86 61.9125 147.858 61.9125C147.856 61.9125 147.854 61.9125 147.852 61.9125C147.85 61.9125 147.849 61.9125 147.847 61.9125C147.845 61.9125 147.843 61.9125 147.841 61.9125C147.839 61.9125 147.838 61.9125 147.836 61.9125C147.834 61.9125 147.832 61.9125 147.83 61.9125C147.828 61.9125 147.826 61.9125 147.825 61.9125C147.823 61.9125 147.821 61.9125 147.819 61.9125C147.817 61.9125 147.815 61.9125 147.814 61.9125C147.812 61.9125 147.81 61.9125 147.808 61.9125C147.806 61.9125 147.804 61.9125 147.803 61.9125C147.801 61.9125 147.799 61.9125 147.797 61.9125C147.795 61.9125 147.793 61.9125 147.792 61.9125C147.79 61.9125 147.788 61.9125 147.786 61.9125C147.784 61.9125 147.782 61.9125 147.78 61.9125C147.779 61.9125 147.777 61.9125 147.775 61.9125C147.773 61.9125 147.771 61.9125 147.769 61.9125C147.768 61.9125 147.766 61.9125 147.764 61.9125C147.762 61.9125 147.76 61.9125 147.758 61.9125C147.757 61.9125 147.755 61.9125 147.753 61.9125C147.751 61.9125 147.749 61.9125 147.747 61.9125C147.745 61.9125 147.744 61.9125 147.742 61.9125C147.74 61.9125 147.738 61.9125 147.736 61.9125C147.734 61.9125 147.733 61.9125 147.731 61.9125C147.729 61.9125 147.727 61.9125 147.725 61.9125C147.723 61.9125 147.722 61.9125 147.72 61.9125C147.718 61.9125 147.716 61.9125 147.714 61.9125C147.712 61.9125 147.71 61.9125 147.709 61.9125C147.707 61.9125 147.705 61.9125 147.703 61.9125C147.701 61.9125 147.699 61.9125 147.698 61.9125C147.696 61.9125 147.694 61.9125 147.692 61.9125C147.69 61.9125 147.688 61.9125 147.686 61.9125C147.685 61.9125 147.683 61.9125 147.681 61.9125C147.679 61.9125 147.677 61.9125 147.675 61.9125C147.674 61.9125 147.672 61.9125 147.67 61.9125C147.668 61.9125 147.666 61.9125 147.664 61.9125C147.662 61.9125 147.661 61.9125 147.659 61.9125C147.657 61.9125 147.655 61.9125 147.653 61.9125C147.651 61.9125 147.649 61.9125 147.648 61.9125C147.646 61.9125 147.644 61.9125 147.642 61.9125C147.64 61.9125 147.638 61.9125 147.637 61.9125C147.635 61.9125 147.633 61.9125 147.631 61.9125C147.629 61.9125 147.627 61.9125 147.625 61.9125C147.624 61.9125 147.622 61.9125 147.62 61.9125C147.618 61.9125 147.616 61.9125 147.614 61.9125C147.613 61.9125 147.611 61.9125 147.609 61.9125C147.607 61.9125 147.605 61.9125 147.603 61.9125C147.601 61.9125 147.6 61.9125 147.598 61.9125C147.596 61.9125 147.594 61.9125 147.592 61.9125C147.59 61.9125 147.588 61.9125 147.587 61.9125C147.585 61.9125 147.583 61.9125 147.581 61.9125C147.579 61.9125 147.577 61.9125 147.575 61.9125C147.574 61.9125 147.572 61.9125 147.57 61.9125C147.568 61.9125 147.566 61.9125 147.564 61.9125C147.563 61.9125 147.561 61.9125 147.559 61.9125C147.557 61.9125 147.555 61.9125 147.553 61.9125C147.551 61.9125 147.55 61.9125 147.548 61.9125C147.546 61.9125 147.544 61.9125 147.542 61.9125C147.54 61.9125 147.538 61.9125 147.537 61.9125C147.535 61.9125 147.533 61.9125 147.531 61.9125C147.529 61.9125 147.527 61.9125 147.525 61.9125C147.524 61.9125 147.522 61.9125 147.52 61.9125C147.518 61.9125 147.516 61.9125 147.514 61.9125C147.512 61.9125 147.511 61.9125 147.509 61.9125C147.507 61.9125 147.505 61.9125 147.503 61.9125C147.501 61.9125 147.499 61.9125 147.498 61.9125C147.496 61.9125 147.494 61.9125 147.492 61.9125C147.49 61.9125 147.488 61.9125 147.486 61.9125C147.485 61.9125 147.483 61.9125 147.481 61.9125C147.479 61.9125 147.477 61.9125 147.475 61.9125C147.473 61.9125 147.472 61.9125 147.47 61.9125C147.468 61.9125 147.466 61.9125 147.464 61.9125C147.462 61.9125 147.46 61.9125 147.459 61.9125C147.457 61.9125 147.455 61.9125 147.453 61.9125C147.451 61.9125 147.449 61.9125 147.447 61.9125C147.446 61.9125 147.444 61.9125 147.442 61.9125C147.44 61.9125 147.438 61.9125 147.436 61.9125C147.434 61.9125 147.433 61.9125 147.431 61.9125C147.429 61.9125 147.427 61.9125 147.425 61.9125C147.423 61.9125 147.421 61.9125 147.42 61.9125C147.418 61.9125 147.416 61.9125 147.414 61.9125C147.412 61.9125 147.41 61.9125 147.408 61.9125C147.407 61.9125 147.405 61.9125 147.403 61.9125C147.401 61.9125 147.399 61.9125 147.397 61.9125C147.395 61.9125 147.394 61.9125 147.392 61.9125C147.39 61.9125 147.388 61.9125 147.386 61.9125C147.384 61.9125 147.382 61.9125 147.38 61.9125C147.379 61.9125 147.377 61.9125 147.375 61.9125C147.373 61.9125 147.371 61.9125 147.369 61.9125C147.367 61.9125 147.366 61.9125 147.364 61.9125C147.362 61.9125 147.36 61.9125 147.358 61.9125C147.356 61.9125 147.354 61.9125 147.353 61.9125C147.351 61.9125 147.349 61.9125 147.347 61.9125C147.345 61.9125 147.343 61.9125 147.341 61.9125C147.339 61.9125 147.338 61.9125 147.336 61.9125C147.334 61.9125 147.332 61.9125 147.33 61.9125C147.328 61.9125 147.326 61.9125 147.325 61.9125C147.323 61.9125 147.321 61.9125 147.319 61.9125C147.317 61.9125 147.315 61.9125 147.313 61.9125C147.312 61.9125 147.31 61.9125 147.308 61.9125C147.306 61.9125 147.304 61.9125 147.302 61.9125C147.3 61.9125 147.298 61.9125 147.297 61.9125C147.295 61.9125 147.293 61.9125 147.291 61.9125C147.289 61.9125 147.287 61.9125 147.285 61.9125C147.284 61.9125 147.282 61.9125 147.28 61.9125C147.278 61.9125 147.276 61.9125 147.274 61.9125C147.272 61.9125 147.27 61.9125 147.269 61.9125C147.267 61.9125 147.265 61.9125 147.263 61.9125C147.261 61.9125 147.259 61.9125 147.257 61.9125C147.255 61.9125 147.254 61.9125 147.252 61.9125C147.25 61.9125 147.248 61.9125 147.246 61.9125C147.244 61.9125 147.242 61.9125 147.241 61.9125C147.239 61.9125 147.237 61.9125 147.235 61.9125C147.233 61.9125 147.231 61.9125 147.229 61.9125C147.227 61.9125 147.226 61.9125 147.224 61.9125C147.222 61.9125 147.22 61.9125 147.218 61.9125C147.216 61.9125 147.214 61.9125 147.212 61.9125C147.211 61.9125 147.209 61.9125 147.207 61.9125C147.205 61.9125 147.203 61.9125 147.201 61.9125C147.199 61.9125 147.198 61.9125 147.196 61.9125C147.194 61.9125 147.192 61.9125 147.19 61.9125C147.188 61.9125 147.186 61.9125 147.184 61.9125C147.183 61.9125 147.181 61.9125 147.179 61.9125C147.177 61.9125 147.175 61.9125 147.173 61.9125C147.171 61.9125 147.169 61.9125 147.168 61.9125C147.166 61.9125 147.164 61.9125 147.162 61.9125C147.16 61.9125 147.158 61.9125 147.156 61.9125C147.154 61.9125 147.153 61.9125 147.151 61.9125C147.149 61.9125 147.147 61.9125 147.145 61.9125C147.143 61.9125 147.141 61.9125 147.139 61.9125C147.138 61.9125 147.136 61.9125 147.134 61.9125C147.132 61.9125 147.13 61.9125 147.128 61.9125C147.126 61.9125 147.124 61.9125 147.123 61.9125C147.121 61.9125 147.119 61.9125 147.117 61.9125C147.115 61.9125 147.113 61.9125 147.111 61.9125C147.109 61.9125 147.108 61.9125 147.106 61.9125C147.104 61.9125 147.102 61.9125 147.1 61.9125C147.098 61.9125 147.096 61.9125 147.094 61.9125C147.093 61.9125 147.091 61.9125 147.089 61.9125C147.087 61.9125 147.085 61.9125 147.083 61.9125C147.081 61.9125 147.079 61.9125 147.078 61.9125C147.076 61.9125 147.074 61.9125 147.072 61.9125C147.07 61.9125 147.068 61.9125 147.066 61.9125C147.064 61.9125 147.063 61.9125 147.061 61.9125C147.059 61.9125 147.057 61.9125 147.055 61.9125C147.053 61.9125 147.051 61.9125 147.049 61.9125C147.047 61.9125 147.046 61.9125 147.044 61.9125C147.042 61.9125 147.04 61.9125 147.038 61.9125C147.036 61.9125 147.034 61.9125 147.032 61.9125C147.031 61.9125 147.029 61.9125 147.027 61.9125C147.025 61.9125 147.023 61.9125 147.021 61.9125C147.019 61.9125 147.017 61.9125 147.016 61.9125C147.014 61.9125 147.012 61.9125 147.01 61.9125C147.008 61.9125 147.006 61.9125 147.004 61.9125C147.002 61.9125 147 61.9125 146.999 61.9125C146.997 61.9125 146.995 61.9125 146.993 61.9125C146.991 61.9125 146.989 61.9125 146.987 61.9125C146.985 61.9125 146.984 61.9125 146.982 61.9125C146.98 61.9125 146.978 61.9125 146.976 61.9125C146.974 61.9125 146.972 61.9125 146.97 61.9125C146.968 61.9125 146.967 61.9125 146.965 61.9125C146.963 61.9125 146.961 61.9125 146.959 61.9125C146.957 61.9125 146.955 61.9125 146.953 61.9125C146.952 61.9125 146.95 61.9125 146.948 61.9125C146.946 61.9125 146.944 61.9125 146.942 61.9125C146.94 61.9125 146.938 61.9125 146.936 61.9125C146.935 61.9125 146.933 61.9125 146.931 61.9125C146.929 61.9125 146.927 61.9125 146.925 61.9125C146.923 61.9125 146.921 61.9125 146.919 61.9125C146.918 61.9125 146.916 61.9125 146.914 61.9125C146.912 61.9125 146.91 61.9125 146.908 61.9125C146.906 61.9125 146.904 61.9125 146.902 61.9125C146.901 61.9125 146.899 61.9125 146.897 61.9125C146.895 61.9125 146.893 61.9125 146.891 61.9125C146.889 61.9125 146.887 61.9125 146.886 61.9125C146.884 61.9125 146.882 61.9125 146.88 61.9125C146.878 61.9125 146.876 61.9125 146.874 61.9125C146.872 61.9125 146.87 61.9125 146.869 61.9125C146.867 61.9125 146.865 61.9125 146.863 61.9125C146.861 61.9125 146.859 61.9125 146.857 61.9125C146.855 61.9125 146.853 61.9125 146.852 61.9125C146.85 61.9125 146.848 61.9125 146.846 61.9125C146.844 61.9125 146.842 61.9125 146.84 61.9125C146.838 61.9125 146.836 61.9125 146.835 61.9125C146.833 61.9125 146.831 61.9125 146.829 61.9125C146.827 61.9125 146.825 61.9125 146.823 61.9125C146.821 61.9125 146.819 61.9125 146.818 61.9125C146.816 61.9125 146.814 61.9125 146.812 61.9125C146.81 61.9125 146.808 61.9125 146.806 61.9125C146.804 61.9125 146.802 61.9125 146.8 61.9125C146.799 61.9125 146.797 61.9125 146.795 61.9125C146.793 61.9125 146.791 61.9125 146.789 61.9125C146.787 61.9125 146.785 61.9125 146.783 61.9125C146.782 61.9125 146.78 61.9125 146.778 61.9125C146.776 61.9125 146.774 61.9125 146.772 61.9125C146.77 61.9125 146.768 61.9125 146.766 61.9125C146.765 61.9125 146.763 61.9125 146.761 61.9125C146.759 61.9125 146.757 61.9125 146.755 61.9125C146.753 61.9125 146.751 61.9125 146.749 61.9125C146.747 61.9125 146.746 61.9125 146.744 61.9125C146.742 61.9125 146.74 61.9125 146.738 61.9125C146.736 61.9125 146.734 61.9125 146.732 61.9125C146.73 61.9125 146.729 61.9125 146.727 61.9125C146.725 61.9125 146.723 61.9125 146.721 61.9125C146.719 61.9125 146.717 61.9125 146.715 61.9125C146.713 61.9125 146.711 61.9125 146.71 61.9125C146.708 61.9125 146.706 61.9125 146.704 61.9125C146.702 61.9125 146.7 61.9125 146.698 61.9125C146.696 61.9125 146.694 61.9125 146.693 61.9125C146.691 61.9125 146.689 61.9125 146.687 61.9125C146.685 61.9125 146.683 61.9125 146.681 61.9125C146.679 61.9125 146.677 61.9125 146.675 61.9125C146.674 61.9125 146.672 61.9125 146.67 61.9125C146.668 61.9125 146.666 61.9125 146.664 61.9125C146.662 61.9125 146.66 61.9125 146.658 61.9125C146.656 61.9125 146.655 61.9125 146.653 61.9125C146.651 61.9125 146.649 61.9125 146.647 61.9125C146.645 61.9125 146.643 61.9125 146.641 61.9125C146.639 61.9125 146.637 61.9125 146.636 61.9125C146.634 61.9125 146.632 61.9125 146.63 61.9125C146.628 61.9125 146.626 61.9125 146.624 61.9125C146.622 61.9125 146.62 61.9125 146.618 61.9125C146.617 61.9125 146.615 61.9125 146.613 61.9125C146.611 61.9125 146.609 61.9125 146.607 61.9125C146.605 61.9125 146.603 61.9125 146.601 61.9125C146.599 61.9125 146.598 61.9125 146.596 61.9125C146.594 61.9125 146.592 61.9125 146.59 61.9125C146.588 61.9125 146.586 61.9125 146.584 61.9125C146.582 61.9125 146.58 61.9125 146.579 61.9125C146.577 61.9125 146.575 61.9125 146.573 61.9125C146.571 61.9125 146.569 61.9125 146.567 61.9125C146.565 61.9125 146.563 61.9125 146.561 61.9125C146.559 61.9125 146.558 61.9125 146.556 61.9125C146.554 61.9125 146.552 61.9125 146.55 61.9125V67.9125C146.552 67.9125 146.554 67.9125 146.556 67.9125C146.558 67.9125 146.559 67.9125 146.561 67.9125C146.563 67.9125 146.565 67.9125 146.567 67.9125C146.569 67.9125 146.571 67.9125 146.573 67.9125C146.575 67.9125 146.577 67.9125 146.579 67.9125C146.58 67.9125 146.582 67.9125 146.584 67.9125C146.586 67.9125 146.588 67.9125 146.59 67.9125C146.592 67.9125 146.594 67.9125 146.596 67.9125C146.598 67.9125 146.599 67.9125 146.601 67.9125C146.603 67.9125 146.605 67.9125 146.607 67.9125C146.609 67.9125 146.611 67.9125 146.613 67.9125C146.615 67.9125 146.617 67.9125 146.618 67.9125C146.62 67.9125 146.622 67.9125 146.624 67.9125C146.626 67.9125 146.628 67.9125 146.63 67.9125C146.632 67.9125 146.634 67.9125 146.636 67.9125C146.637 67.9125 146.639 67.9125 146.641 67.9125C146.643 67.9125 146.645 67.9125 146.647 67.9125C146.649 67.9125 146.651 67.9125 146.653 67.9125C146.655 67.9125 146.656 67.9125 146.658 67.9125C146.66 67.9125 146.662 67.9125 146.664 67.9125C146.666 67.9125 146.668 67.9125 146.67 67.9125C146.672 67.9125 146.674 67.9125 146.675 67.9125C146.677 67.9125 146.679 67.9125 146.681 67.9125C146.683 67.9125 146.685 67.9125 146.687 67.9125C146.689 67.9125 146.691 67.9125 146.693 67.9125C146.694 67.9125 146.696 67.9125 146.698 67.9125C146.7 67.9125 146.702 67.9125 146.704 67.9125C146.706 67.9125 146.708 67.9125 146.71 67.9125C146.711 67.9125 146.713 67.9125 146.715 67.9125C146.717 67.9125 146.719 67.9125 146.721 67.9125C146.723 67.9125 146.725 67.9125 146.727 67.9125C146.729 67.9125 146.73 67.9125 146.732 67.9125C146.734 67.9125 146.736 67.9125 146.738 67.9125C146.74 67.9125 146.742 67.9125 146.744 67.9125C146.746 67.9125 146.747 67.9125 146.749 67.9125C146.751 67.9125 146.753 67.9125 146.755 67.9125C146.757 67.9125 146.759 67.9125 146.761 67.9125C146.763 67.9125 146.765 67.9125 146.766 67.9125C146.768 67.9125 146.77 67.9125 146.772 67.9125C146.774 67.9125 146.776 67.9125 146.778 67.9125C146.78 67.9125 146.782 67.9125 146.783 67.9125C146.785 67.9125 146.787 67.9125 146.789 67.9125C146.791 67.9125 146.793 67.9125 146.795 67.9125C146.797 67.9125 146.799 67.9125 146.8 67.9125C146.802 67.9125 146.804 67.9125 146.806 67.9125C146.808 67.9125 146.81 67.9125 146.812 67.9125C146.814 67.9125 146.816 67.9125 146.818 67.9125C146.819 67.9125 146.821 67.9125 146.823 67.9125C146.825 67.9125 146.827 67.9125 146.829 67.9125C146.831 67.9125 146.833 67.9125 146.835 67.9125C146.836 67.9125 146.838 67.9125 146.84 67.9125C146.842 67.9125 146.844 67.9125 146.846 67.9125C146.848 67.9125 146.85 67.9125 146.852 67.9125C146.853 67.9125 146.855 67.9125 146.857 67.9125C146.859 67.9125 146.861 67.9125 146.863 67.9125C146.865 67.9125 146.867 67.9125 146.869 67.9125C146.87 67.9125 146.872 67.9125 146.874 67.9125C146.876 67.9125 146.878 67.9125 146.88 67.9125C146.882 67.9125 146.884 67.9125 146.886 67.9125C146.887 67.9125 146.889 67.9125 146.891 67.9125C146.893 67.9125 146.895 67.9125 146.897 67.9125C146.899 67.9125 146.901 67.9125 146.902 67.9125C146.904 67.9125 146.906 67.9125 146.908 67.9125C146.91 67.9125 146.912 67.9125 146.914 67.9125C146.916 67.9125 146.918 67.9125 146.919 67.9125C146.921 67.9125 146.923 67.9125 146.925 67.9125C146.927 67.9125 146.929 67.9125 146.931 67.9125C146.933 67.9125 146.935 67.9125 146.936 67.9125C146.938 67.9125 146.94 67.9125 146.942 67.9125C146.944 67.9125 146.946 67.9125 146.948 67.9125C146.95 67.9125 146.952 67.9125 146.953 67.9125C146.955 67.9125 146.957 67.9125 146.959 67.9125C146.961 67.9125 146.963 67.9125 146.965 67.9125C146.967 67.9125 146.968 67.9125 146.97 67.9125C146.972 67.9125 146.974 67.9125 146.976 67.9125C146.978 67.9125 146.98 67.9125 146.982 67.9125C146.984 67.9125 146.985 67.9125 146.987 67.9125C146.989 67.9125 146.991 67.9125 146.993 67.9125C146.995 67.9125 146.997 67.9125 146.999 67.9125C147 67.9125 147.002 67.9125 147.004 67.9125C147.006 67.9125 147.008 67.9125 147.01 67.9125C147.012 67.9125 147.014 67.9125 147.016 67.9125C147.017 67.9125 147.019 67.9125 147.021 67.9125C147.023 67.9125 147.025 67.9125 147.027 67.9125C147.029 67.9125 147.031 67.9125 147.032 67.9125C147.034 67.9125 147.036 67.9125 147.038 67.9125C147.04 67.9125 147.042 67.9125 147.044 67.9125C147.046 67.9125 147.047 67.9125 147.049 67.9125C147.051 67.9125 147.053 67.9125 147.055 67.9125C147.057 67.9125 147.059 67.9125 147.061 67.9125C147.063 67.9125 147.064 67.9125 147.066 67.9125C147.068 67.9125 147.07 67.9125 147.072 67.9125C147.074 67.9125 147.076 67.9125 147.078 67.9125C147.079 67.9125 147.081 67.9125 147.083 67.9125C147.085 67.9125 147.087 67.9125 147.089 67.9125C147.091 67.9125 147.093 67.9125 147.094 67.9125C147.096 67.9125 147.098 67.9125 147.1 67.9125C147.102 67.9125 147.104 67.9125 147.106 67.9125C147.108 67.9125 147.109 67.9125 147.111 67.9125C147.113 67.9125 147.115 67.9125 147.117 67.9125C147.119 67.9125 147.121 67.9125 147.123 67.9125C147.124 67.9125 147.126 67.9125 147.128 67.9125C147.13 67.9125 147.132 67.9125 147.134 67.9125C147.136 67.9125 147.138 67.9125 147.139 67.9125C147.141 67.9125 147.143 67.9125 147.145 67.9125C147.147 67.9125 147.149 67.9125 147.151 67.9125C147.153 67.9125 147.154 67.9125 147.156 67.9125C147.158 67.9125 147.16 67.9125 147.162 67.9125C147.164 67.9125 147.166 67.9125 147.168 67.9125C147.169 67.9125 147.171 67.9125 147.173 67.9125C147.175 67.9125 147.177 67.9125 147.179 67.9125C147.181 67.9125 147.183 67.9125 147.184 67.9125C147.186 67.9125 147.188 67.9125 147.19 67.9125C147.192 67.9125 147.194 67.9125 147.196 67.9125C147.198 67.9125 147.199 67.9125 147.201 67.9125C147.203 67.9125 147.205 67.9125 147.207 67.9125C147.209 67.9125 147.211 67.9125 147.212 67.9125C147.214 67.9125 147.216 67.9125 147.218 67.9125C147.22 67.9125 147.222 67.9125 147.224 67.9125C147.226 67.9125 147.227 67.9125 147.229 67.9125C147.231 67.9125 147.233 67.9125 147.235 67.9125C147.237 67.9125 147.239 67.9125 147.241 67.9125C147.242 67.9125 147.244 67.9125 147.246 67.9125C147.248 67.9125 147.25 67.9125 147.252 67.9125C147.254 67.9125 147.255 67.9125 147.257 67.9125C147.259 67.9125 147.261 67.9125 147.263 67.9125C147.265 67.9125 147.267 67.9125 147.269 67.9125C147.27 67.9125 147.272 67.9125 147.274 67.9125C147.276 67.9125 147.278 67.9125 147.28 67.9125C147.282 67.9125 147.284 67.9125 147.285 67.9125C147.287 67.9125 147.289 67.9125 147.291 67.9125C147.293 67.9125 147.295 67.9125 147.297 67.9125C147.298 67.9125 147.3 67.9125 147.302 67.9125C147.304 67.9125 147.306 67.9125 147.308 67.9125C147.31 67.9125 147.312 67.9125 147.313 67.9125C147.315 67.9125 147.317 67.9125 147.319 67.9125C147.321 67.9125 147.323 67.9125 147.325 67.9125C147.326 67.9125 147.328 67.9125 147.33 67.9125C147.332 67.9125 147.334 67.9125 147.336 67.9125C147.338 67.9125 147.339 67.9125 147.341 67.9125C147.343 67.9125 147.345 67.9125 147.347 67.9125C147.349 67.9125 147.351 67.9125 147.353 67.9125C147.354 67.9125 147.356 67.9125 147.358 67.9125C147.36 67.9125 147.362 67.9125 147.364 67.9125C147.366 67.9125 147.367 67.9125 147.369 67.9125C147.371 67.9125 147.373 67.9125 147.375 67.9125C147.377 67.9125 147.379 67.9125 147.38 67.9125C147.382 67.9125 147.384 67.9125 147.386 67.9125C147.388 67.9125 147.39 67.9125 147.392 67.9125C147.394 67.9125 147.395 67.9125 147.397 67.9125C147.399 67.9125 147.401 67.9125 147.403 67.9125C147.405 67.9125 147.407 67.9125 147.408 67.9125C147.41 67.9125 147.412 67.9125 147.414 67.9125C147.416 67.9125 147.418 67.9125 147.42 67.9125C147.421 67.9125 147.423 67.9125 147.425 67.9125C147.427 67.9125 147.429 67.9125 147.431 67.9125C147.433 67.9125 147.434 67.9125 147.436 67.9125C147.438 67.9125 147.44 67.9125 147.442 67.9125C147.444 67.9125 147.446 67.9125 147.447 67.9125C147.449 67.9125 147.451 67.9125 147.453 67.9125C147.455 67.9125 147.457 67.9125 147.459 67.9125C147.46 67.9125 147.462 67.9125 147.464 67.9125C147.466 67.9125 147.468 67.9125 147.47 67.9125C147.472 67.9125 147.473 67.9125 147.475 67.9125C147.477 67.9125 147.479 67.9125 147.481 67.9125C147.483 67.9125 147.485 67.9125 147.486 67.9125C147.488 67.9125 147.49 67.9125 147.492 67.9125C147.494 67.9125 147.496 67.9125 147.498 67.9125C147.499 67.9125 147.501 67.9125 147.503 67.9125C147.505 67.9125 147.507 67.9125 147.509 67.9125C147.511 67.9125 147.512 67.9125 147.514 67.9125C147.516 67.9125 147.518 67.9125 147.52 67.9125C147.522 67.9125 147.524 67.9125 147.525 67.9125C147.527 67.9125 147.529 67.9125 147.531 67.9125C147.533 67.9125 147.535 67.9125 147.537 67.9125C147.538 67.9125 147.54 67.9125 147.542 67.9125C147.544 67.9125 147.546 67.9125 147.548 67.9125C147.55 67.9125 147.551 67.9125 147.553 67.9125C147.555 67.9125 147.557 67.9125 147.559 67.9125C147.561 67.9125 147.563 67.9125 147.564 67.9125C147.566 67.9125 147.568 67.9125 147.57 67.9125C147.572 67.9125 147.574 67.9125 147.575 67.9125C147.577 67.9125 147.579 67.9125 147.581 67.9125C147.583 67.9125 147.585 67.9125 147.587 67.9125C147.588 67.9125 147.59 67.9125 147.592 67.9125C147.594 67.9125 147.596 67.9125 147.598 67.9125C147.6 67.9125 147.601 67.9125 147.603 67.9125C147.605 67.9125 147.607 67.9125 147.609 67.9125C147.611 67.9125 147.613 67.9125 147.614 67.9125C147.616 67.9125 147.618 67.9125 147.62 67.9125C147.622 67.9125 147.624 67.9125 147.625 67.9125C147.627 67.9125 147.629 67.9125 147.631 67.9125C147.633 67.9125 147.635 67.9125 147.637 67.9125C147.638 67.9125 147.64 67.9125 147.642 67.9125C147.644 67.9125 147.646 67.9125 147.648 67.9125C147.649 67.9125 147.651 67.9125 147.653 67.9125C147.655 67.9125 147.657 67.9125 147.659 67.9125C147.661 67.9125 147.662 67.9125 147.664 67.9125C147.666 67.9125 147.668 67.9125 147.67 67.9125C147.672 67.9125 147.674 67.9125 147.675 67.9125C147.677 67.9125 147.679 67.9125 147.681 67.9125C147.683 67.9125 147.685 67.9125 147.686 67.9125C147.688 67.9125 147.69 67.9125 147.692 67.9125C147.694 67.9125 147.696 67.9125 147.698 67.9125C147.699 67.9125 147.701 67.9125 147.703 67.9125C147.705 67.9125 147.707 67.9125 147.709 67.9125C147.71 67.9125 147.712 67.9125 147.714 67.9125C147.716 67.9125 147.718 67.9125 147.72 67.9125C147.722 67.9125 147.723 67.9125 147.725 67.9125C147.727 67.9125 147.729 67.9125 147.731 67.9125C147.733 67.9125 147.734 67.9125 147.736 67.9125C147.738 67.9125 147.74 67.9125 147.742 67.9125C147.744 67.9125 147.745 67.9125 147.747 67.9125C147.749 67.9125 147.751 67.9125 147.753 67.9125C147.755 67.9125 147.757 67.9125 147.758 67.9125C147.76 67.9125 147.762 67.9125 147.764 67.9125C147.766 67.9125 147.768 67.9125 147.769 67.9125C147.771 67.9125 147.773 67.9125 147.775 67.9125C147.777 67.9125 147.779 67.9125 147.78 67.9125C147.782 67.9125 147.784 67.9125 147.786 67.9125C147.788 67.9125 147.79 67.9125 147.792 67.9125C147.793 67.9125 147.795 67.9125 147.797 67.9125C147.799 67.9125 147.801 67.9125 147.803 67.9125C147.804 67.9125 147.806 67.9125 147.808 67.9125C147.81 67.9125 147.812 67.9125 147.814 67.9125C147.815 67.9125 147.817 67.9125 147.819 67.9125C147.821 67.9125 147.823 67.9125 147.825 67.9125C147.826 67.9125 147.828 67.9125 147.83 67.9125C147.832 67.9125 147.834 67.9125 147.836 67.9125C147.838 67.9125 147.839 67.9125 147.841 67.9125C147.843 67.9125 147.845 67.9125 147.847 67.9125C147.849 67.9125 147.85 67.9125 147.852 67.9125C147.854 67.9125 147.856 67.9125 147.858 67.9125C147.86 67.9125 147.861 67.9125 147.863 67.9125C147.865 67.9125 147.867 67.9125 147.869 67.9125C147.871 67.9125 147.872 67.9125 147.874 67.9125C147.876 67.9125 147.878 67.9125 147.88 67.9125C147.882 67.9125 147.883 67.9125 147.885 67.9125C147.887 67.9125 147.889 67.9125 147.891 67.9125C147.893 67.9125 147.894 67.9125 147.896 67.9125C147.898 67.9125 147.9 67.9125 147.902 67.9125C147.904 67.9125 147.906 67.9125 147.907 67.9125C147.909 67.9125 147.911 67.9125 147.913 67.9125C147.915 67.9125 147.917 67.9125 147.918 67.9125C147.92 67.9125 147.922 67.9125 147.924 67.9125C147.926 67.9125 147.928 67.9125 147.929 67.9125C147.931 67.9125 147.933 67.9125 147.935 67.9125C147.937 67.9125 147.939 67.9125 147.94 67.9125C147.942 67.9125 147.944 67.9125 147.946 67.9125C147.948 67.9125 147.95 67.9125 147.951 67.9125C147.953 67.9125 147.955 67.9125 147.957 67.9125C147.959 67.9125 147.961 67.9125 147.962 67.9125C147.964 67.9125 147.966 67.9125 147.968 67.9125C147.97 67.9125 147.972 67.9125 147.973 67.9125C147.975 67.9125 147.977 67.9125 147.979 67.9125C147.981 67.9125 147.982 67.9125 147.984 67.9125C147.986 67.9125 147.988 67.9125 147.99 67.9125C147.992 67.9125 147.993 67.9125 147.995 67.9125C147.997 67.9125 147.999 67.9125 148.001 67.9125C148.003 67.9125 148.004 67.9125 148.006 67.9125C148.008 67.9125 148.01 67.9125 148.012 67.9125C148.014 67.9125 148.015 67.9125 148.017 67.9125C148.019 67.9125 148.021 67.9125 148.023 67.9125C148.025 67.9125 148.026 67.9125 148.028 67.9125C148.03 67.9125 148.032 67.9125 148.034 67.9125C148.036 67.9125 148.037 67.9125 148.039 67.9125C148.041 67.9125 148.043 67.9125 148.045 67.9125C148.047 67.9125 148.048 67.9125 148.05 67.9125C148.052 67.9125 148.054 67.9125 148.056 67.9125C148.057 67.9125 148.059 67.9125 148.061 67.9125C148.063 67.9125 148.065 67.9125 148.067 67.9125C148.068 67.9125 148.07 67.9125 148.072 67.9125C148.074 67.9125 148.076 67.9125 148.078 67.9125C148.079 67.9125 148.081 67.9125 148.083 67.9125C148.085 67.9125 148.087 67.9125 148.089 67.9125C148.09 67.9125 148.092 67.9125 148.094 67.9125C148.096 67.9125 148.098 67.9125 148.099 67.9125C148.101 67.9125 148.103 67.9125 148.105 67.9125C148.107 67.9125 148.109 67.9125 148.11 67.9125C148.112 67.9125 148.114 67.9125 148.116 67.9125C148.118 67.9125 148.12 67.9125 148.121 67.9125C148.123 67.9125 148.125 67.9125 148.127 67.9125C148.129 67.9125 148.131 67.9125 148.132 67.9125C148.134 67.9125 148.136 67.9125 148.138 67.9125C148.14 67.9125 148.141 67.9125 148.143 67.9125C148.145 67.9125 148.147 67.9125 148.149 67.9125C148.151 67.9125 148.152 67.9125 148.154 67.9125C148.156 67.9125 148.158 67.9125 148.16 67.9125C148.161 67.9125 148.163 67.9125 148.165 67.9125C148.167 67.9125 148.169 67.9125 148.171 67.9125C148.172 67.9125 148.174 67.9125 148.176 67.9125C148.178 67.9125 148.18 67.9125 148.182 67.9125C148.183 67.9125 148.185 67.9125 148.187 67.9125C148.189 67.9125 148.191 67.9125 148.192 67.9125C148.194 67.9125 148.196 67.9125 148.198 67.9125C148.2 67.9125 148.202 67.9125 148.203 67.9125C148.205 67.9125 148.207 67.9125 148.209 67.9125C148.211 67.9125 148.212 67.9125 148.214 67.9125C148.216 67.9125 148.218 67.9125 148.22 67.9125C148.222 67.9125 148.223 67.9125 148.225 67.9125C148.227 67.9125 148.229 67.9125 148.231 67.9125C148.232 67.9125 148.234 67.9125 148.236 67.9125C148.238 67.9125 148.24 67.9125 148.242 67.9125C148.243 67.9125 148.245 67.9125 148.247 67.9125C148.249 67.9125 148.251 67.9125 148.252 67.9125C148.254 67.9125 148.256 67.9125 148.258 67.9125C148.26 67.9125 148.262 67.9125 148.263 67.9125C148.265 67.9125 148.267 67.9125 148.269 67.9125C148.271 67.9125 148.272 67.9125 148.274 67.9125C148.276 67.9125 148.278 67.9125 148.28 67.9125C148.282 67.9125 148.283 67.9125 148.285 67.9125C148.287 67.9125 148.289 67.9125 148.291 67.9125C148.292 67.9125 148.294 67.9125 148.296 67.9125C148.298 67.9125 148.3 67.9125 148.301 67.9125C148.303 67.9125 148.305 67.9125 148.307 67.9125C148.309 67.9125 148.311 67.9125 148.312 67.9125C148.314 67.9125 148.316 67.9125 148.318 67.9125C148.32 67.9125 148.321 67.9125 148.323 67.9125C148.325 67.9125 148.327 67.9125 148.329 67.9125C148.331 67.9125 148.332 67.9125 148.334 67.9125C148.336 67.9125 148.338 67.9125 148.34 67.9125C148.341 67.9125 148.343 67.9125 148.345 67.9125C148.347 67.9125 148.349 67.9125 148.35 67.9125C148.352 67.9125 148.354 67.9125 148.356 67.9125C148.358 67.9125 148.359 67.9125 148.361 67.9125C148.363 67.9125 148.365 67.9125 148.367 67.9125C148.369 67.9125 148.37 67.9125 148.372 67.9125C148.374 67.9125 148.376 67.9125 148.378 67.9125C148.379 67.9125 148.381 67.9125 148.383 67.9125C148.385 67.9125 148.387 67.9125 148.388 67.9125C148.39 67.9125 148.392 67.9125 148.394 67.9125C148.396 67.9125 148.398 67.9125 148.399 67.9125C148.401 67.9125 148.403 67.9125 148.405 67.9125C148.407 67.9125 148.408 67.9125 148.41 67.9125C148.412 67.9125 148.414 67.9125 148.416 67.9125C148.417 67.9125 148.419 67.9125 148.421 67.9125C148.423 67.9125 148.425 67.9125 148.426 67.9125C148.428 67.9125 148.43 67.9125 148.432 67.9125C148.434 67.9125 148.435 67.9125 148.437 67.9125C148.439 67.9125 148.441 67.9125 148.443 67.9125C148.445 67.9125 148.446 67.9125 148.448 67.9125C148.45 67.9125 148.452 67.9125 148.454 67.9125C148.455 67.9125 148.457 67.9125 148.459 67.9125C148.461 67.9125 148.463 67.9125 148.464 67.9125C148.466 67.9125 148.468 67.9125 148.47 67.9125C148.472 67.9125 148.473 67.9125 148.475 67.9125C148.477 67.9125 148.479 67.9125 148.481 67.9125C148.482 67.9125 148.484 67.9125 148.486 67.9125C148.488 67.9125 148.49 67.9125 148.491 67.9125C148.493 67.9125 148.495 67.9125 148.497 67.9125C148.499 67.9125 148.5 67.9125 148.502 67.9125C148.504 67.9125 148.506 67.9125 148.508 67.9125C148.51 67.9125 148.511 67.9125 148.513 67.9125C148.515 67.9125 148.517 67.9125 148.519 67.9125C148.52 67.9125 148.522 67.9125 148.524 67.9125C148.526 67.9125 148.528 67.9125 148.529 67.9125C148.531 67.9125 148.533 67.9125 148.535 67.9125C148.537 67.9125 148.538 67.9125 148.54 67.9125C148.542 67.9125 148.544 67.9125 148.546 67.9125C148.547 67.9125 148.549 67.9125 148.551 67.9125C148.553 67.9125 148.555 67.9125 148.556 67.9125C148.558 67.9125 148.56 67.9125 148.562 67.9125C148.564 67.9125 148.565 67.9125 148.567 67.9125C148.569 67.9125 148.571 67.9125 148.573 67.9125C148.574 67.9125 148.576 67.9125 148.578 67.9125C148.58 67.9125 148.582 67.9125 148.583 67.9125C148.585 67.9125 148.587 67.9125 148.589 67.9125C148.591 67.9125 148.592 67.9125 148.594 67.9125C148.596 67.9125 148.598 67.9125 148.6 67.9125C148.601 67.9125 148.603 67.9125 148.605 67.9125C148.607 67.9125 148.609 67.9125 148.61 67.9125C148.612 67.9125 148.614 67.9125 148.616 67.9125C148.618 67.9125 148.619 67.9125 148.621 67.9125C148.623 67.9125 148.625 67.9125 148.627 67.9125C148.628 67.9125 148.63 67.9125 148.632 67.9125C148.634 67.9125 148.636 67.9125 148.637 67.9125C148.639 67.9125 148.641 67.9125 148.643 67.9125C148.645 67.9125 148.646 67.9125 148.648 67.9125C148.65 67.9125 148.652 67.9125 148.653 67.9125C148.655 67.9125 148.657 67.9125 148.659 67.9125C148.661 67.9125 148.662 67.9125 148.664 67.9125C148.666 67.9125 148.668 67.9125 148.67 67.9125C148.671 67.9125 148.673 67.9125 148.675 67.9125C148.677 67.9125 148.679 67.9125 148.68 67.9125C148.682 67.9125 148.684 67.9125 148.686 67.9125C148.688 67.9125 148.689 67.9125 148.691 67.9125C148.693 67.9125 148.695 67.9125 148.697 67.9125C148.698 67.9125 148.7 67.9125 148.702 67.9125C148.704 67.9125 148.706 67.9125 148.707 67.9125C148.709 67.9125 148.711 67.9125 148.713 67.9125C148.714 67.9125 148.716 67.9125 148.718 67.9125C148.72 67.9125 148.722 67.9125 148.723 67.9125C148.725 67.9125 148.727 67.9125 148.729 67.9125C148.731 67.9125 148.732 67.9125 148.734 67.9125C148.736 67.9125 148.738 67.9125 148.74 67.9125C148.741 67.9125 148.743 67.9125 148.745 67.9125C148.747 67.9125 148.749 67.9125 148.75 67.9125C148.752 67.9125 148.754 67.9125 148.756 67.9125C148.757 67.9125 148.759 67.9125 148.761 67.9125C148.763 67.9125 148.765 67.9125 148.766 67.9125C148.768 67.9125 148.77 67.9125 148.772 67.9125C148.774 67.9125 148.775 67.9125 148.777 67.9125C148.779 67.9125 148.781 67.9125 148.783 67.9125C148.784 67.9125 148.786 67.9125 148.788 67.9125C148.79 67.9125 148.791 67.9125 148.793 67.9125C148.795 67.9125 148.797 67.9125 148.799 67.9125C148.8 67.9125 148.802 67.9125 148.804 67.9125C148.806 67.9125 148.808 67.9125 148.809 67.9125C148.811 67.9125 148.813 67.9125 148.815 67.9125C148.817 67.9125 148.818 67.9125 148.82 67.9125C148.822 67.9125 148.824 67.9125 148.825 67.9125C148.827 67.9125 148.829 67.9125 148.831 67.9125C148.833 67.9125 148.834 67.9125 148.836 67.9125C148.838 67.9125 148.84 67.9125 148.842 67.9125C148.843 67.9125 148.845 67.9125 148.847 67.9125C148.849 67.9125 148.85 67.9125 148.852 67.9125C148.854 67.9125 148.856 67.9125 148.858 67.9125C148.859 67.9125 148.861 67.9125 148.863 67.9125C148.865 67.9125 148.867 67.9125 148.868 67.9125C148.87 67.9125 148.872 67.9125 148.874 67.9125C148.875 67.9125 148.877 67.9125 148.879 67.9125C148.881 67.9125 148.883 67.9125 148.884 67.9125C148.886 67.9125 148.888 67.9125 148.89 67.9125C148.891 67.9125 148.893 67.9125 148.895 67.9125C148.897 67.9125 148.899 67.9125 148.9 67.9125C148.902 67.9125 148.904 67.9125 148.906 67.9125C148.908 67.9125 148.909 67.9125 148.911 67.9125C148.913 67.9125 148.915 67.9125 148.916 67.9125C148.918 67.9125 148.92 67.9125 148.922 67.9125C148.924 67.9125 148.925 67.9125 148.927 67.9125C148.929 67.9125 148.931 67.9125 148.932 67.9125C148.934 67.9125 148.936 67.9125 148.938 67.9125C148.94 67.9125 148.941 67.9125 148.943 67.9125C148.945 67.9125 148.947 67.9125 148.949 67.9125C148.95 67.9125 148.952 67.9125 148.954 67.9125C148.956 67.9125 148.957 67.9125 148.959 67.9125C148.961 67.9125 148.963 67.9125 148.965 67.9125C148.966 67.9125 148.968 67.9125 148.97 67.9125C148.972 67.9125 148.973 67.9125 148.975 67.9125C148.977 67.9125 148.979 67.9125 148.981 67.9125C148.982 67.9125 148.984 67.9125 148.986 67.9125C148.988 67.9125 148.989 67.9125 148.991 67.9125C148.993 67.9125 148.995 67.9125 148.997 67.9125C148.998 67.9125 149 67.9125 149.002 67.9125C149.004 67.9125 149.005 67.9125 149.007 67.9125C149.009 67.9125 149.011 67.9125 149.013 67.9125C149.014 67.9125 149.016 67.9125 149.018 67.9125C149.02 67.9125 149.021 67.9125 149.023 67.9125C149.025 67.9125 149.027 67.9125 149.029 67.9125C149.03 67.9125 149.032 67.9125 149.034 67.9125C149.036 67.9125 149.037 67.9125 149.039 67.9125C149.041 67.9125 149.043 67.9125 149.045 67.9125C149.046 67.9125 149.048 67.9125 149.05 67.9125C149.052 67.9125 149.053 67.9125 149.055 67.9125C149.057 67.9125 149.059 67.9125 149.06 67.9125C149.062 67.9125 149.064 67.9125 149.066 67.9125C149.068 67.9125 149.069 67.9125 149.071 67.9125C149.073 67.9125 149.075 67.9125 149.076 67.9125C149.078 67.9125 149.08 67.9125 149.082 67.9125C149.084 67.9125 149.085 67.9125 149.087 67.9125C149.089 67.9125 149.091 67.9125 149.092 67.9125C149.094 67.9125 149.096 67.9125 149.098 67.9125C149.099 67.9125 149.101 67.9125 149.103 67.9125C149.105 67.9125 149.107 67.9125 149.108 67.9125C149.11 67.9125 149.112 67.9125 149.114 67.9125C149.115 67.9125 149.117 67.9125 149.119 67.9125C149.121 67.9125 149.123 67.9125 149.124 67.9125C149.126 67.9125 149.128 67.9125 149.13 67.9125C149.131 67.9125 149.133 67.9125 149.135 67.9125C149.137 67.9125 149.138 67.9125 149.14 67.9125C149.142 67.9125 149.144 67.9125 149.146 67.9125C149.147 67.9125 149.149 67.9125 149.151 67.9125C149.153 67.9125 149.154 67.9125 149.156 67.9125C149.158 67.9125 149.16 67.9125 149.161 67.9125C149.163 67.9125 149.165 67.9125 149.167 67.9125C149.169 67.9125 149.17 67.9125 149.172 67.9125C149.174 67.9125 149.176 67.9125 149.177 67.9125C149.179 67.9125 149.181 67.9125 149.183 67.9125C149.184 67.9125 149.186 67.9125 149.188 67.9125C149.19 67.9125 149.191 67.9125 149.193 67.9125C149.195 67.9125 149.197 67.9125 149.199 67.9125C149.2 67.9125 149.202 67.9125 149.204 67.9125C149.206 67.9125 149.207 67.9125 149.209 67.9125C149.211 67.9125 149.213 67.9125 149.214 67.9125C149.216 67.9125 149.218 67.9125 149.22 67.9125C149.222 67.9125 149.223 67.9125 149.225 67.9125C149.227 67.9125 149.229 67.9125 149.23 67.9125C149.232 67.9125 149.234 67.9125 149.236 67.9125C149.237 67.9125 149.239 67.9125 149.241 67.9125C149.243 67.9125 149.244 67.9125 149.246 67.9125C149.248 67.9125 149.25 67.9125 149.252 67.9125C149.253 67.9125 149.255 67.9125 149.257 67.9125C149.259 67.9125 149.26 67.9125 149.262 67.9125C149.264 67.9125 149.266 67.9125 149.267 67.9125C149.269 67.9125 149.271 67.9125 149.273 67.9125C149.274 67.9125 149.276 67.9125 149.278 67.9125C149.28 67.9125 149.281 67.9125 149.283 67.9125C149.285 67.9125 149.287 67.9125 149.289 67.9125C149.29 67.9125 149.292 67.9125 149.294 67.9125C149.296 67.9125 149.297 67.9125 149.299 67.9125C149.301 67.9125 149.303 67.9125 149.304 67.9125C149.306 67.9125 149.308 67.9125 149.31 67.9125C149.311 67.9125 149.313 67.9125 149.315 67.9125C149.317 67.9125 149.318 67.9125 149.32 67.9125C149.322 67.9125 149.324 67.9125 149.326 67.9125C149.327 67.9125 149.329 67.9125 149.331 67.9125C149.333 67.9125 149.334 67.9125 149.336 67.9125C149.338 67.9125 149.34 67.9125 149.341 67.9125C149.343 67.9125 149.345 67.9125 149.347 67.9125C149.348 67.9125 149.35 67.9125 149.352 67.9125C149.354 67.9125 149.355 67.9125 149.357 67.9125C149.359 67.9125 149.361 67.9125 149.362 67.9125V61.9125ZM146.55 61.9125C145.817 61.9125 145.082 61.8516 144.343 61.7284L143.357 67.6467C144.417 67.8235 145.482 67.9125 146.55 67.9125V61.9125ZM140.888 64.2136C140.273 68.0558 139.777 72.3353 139.397 77.0464L145.378 77.5287C145.748 72.9398 146.227 68.8193 146.812 65.1615L140.888 64.2136ZM139.394 77.0912C139.089 81.7457 138.937 86.988 138.937 92.8125H144.937C144.937 87.0871 145.086 81.9793 145.381 77.4838L139.394 77.0912ZM138.937 92.8125V129.263H144.937V92.8125H138.937ZM141.937 132.263H157.012V126.263H141.937V132.263ZM154.176 128.286L151.813 135.148L157.487 137.102L159.849 130.239L154.176 128.286ZM154.65 133.125H141.937V139.125H154.65V133.125ZM138.937 136.125V163.8H144.937V136.125H138.937ZM138.937 163.8C138.937 170.078 138.863 175.557 138.714 180.242L144.711 180.433C144.862 175.668 144.937 170.122 144.937 163.8H138.937ZM138.714 180.241C138.568 184.776 138.167 188.786 137.524 192.283L143.426 193.367C144.133 189.515 144.557 185.199 144.711 180.434L138.714 180.241ZM137.526 192.272C136.891 195.662 135.947 198.683 134.714 201.355L140.161 203.87C141.628 200.692 142.709 197.189 143.424 193.378L137.526 192.272ZM134.726 201.328C133.509 203.897 131.794 206.485 129.543 209.088L134.082 213.012C136.631 210.065 138.666 207.028 140.149 203.897L134.726 201.328ZM129.552 209.077C125.806 213.369 120.495 216.991 113.466 219.86L115.734 225.415C123.405 222.284 129.569 218.181 134.072 213.023L129.552 209.077ZM113.466 219.86C106.572 222.674 98.055 224.138 87.8249 224.138V230.138C98.5949 230.138 107.928 228.601 115.734 225.415L113.466 219.86ZM87.8249 224.138C81.6579 224.138 75.8063 223.278 70.2572 221.57L68.4927 227.305C74.6436 229.197 81.092 230.138 87.8249 230.138V224.138ZM70.2572 221.57C64.6875 219.856 59.8564 217.483 55.7294 214.476L52.1955 219.324C56.9185 222.767 62.3624 225.419 68.4927 227.305L70.2572 221.57ZM55.7294 214.476C51.6219 211.482 48.3844 207.925 45.9788 203.801L40.7961 206.824C43.6405 211.7 47.453 215.868 52.1955 219.324L55.7294 214.476ZM45.9788 203.801C43.6353 199.783 42.4499 195.322 42.4499 190.35H36.4499C36.4499 196.328 37.8896 201.842 40.7961 206.824L45.9788 203.801ZM42.4499 190.35C42.4499 186.615 43.0374 183.361 44.1523 180.541L38.5726 178.335C37.1375 181.964 36.4499 185.985 36.4499 190.35H42.4499ZM44.1298 180.596C45.3701 177.633 46.9389 175.051 48.825 172.828L44.2499 168.947C41.936 171.674 40.0548 174.792 38.5951 178.279L44.1298 180.596ZM48.8532 172.795C50.8048 170.425 52.91 168.428 55.1645 166.789L51.6354 161.936C48.9399 163.897 46.4701 166.25 44.2217 168.98L48.8532 172.795ZM55.13 166.813C57.576 165.087 59.9214 163.668 62.1666 162.546L59.4833 157.179C56.9285 158.457 54.3239 160.038 51.6699 161.912L55.13 166.813ZM62.1666 162.546C64.4825 161.388 66.5347 160.507 68.3313 159.885L66.3686 154.215C64.2652 154.943 61.9674 155.937 59.4833 157.179L62.1666 162.546ZM68.3313 159.885C70.2627 159.216 71.6004 158.811 72.412 158.623L71.0629 152.777C69.9245 153.04 68.3372 153.534 66.3686 154.215L68.3313 159.885ZM69.0411 157.015L71.2911 161.628L76.6838 158.997L74.4338 154.385L69.0411 157.015ZM72.5998 157.653C70.7072 158.64 68.6302 159.964 66.3779 161.595L69.897 166.455C71.9947 164.936 73.8177 163.785 75.3751 162.972L72.5998 157.653ZM66.3937 161.584C64.0218 163.278 61.8321 165.441 59.8109 168.028L64.539 171.722C66.2678 169.509 68.0531 167.772 69.8812 166.466L66.3937 161.584ZM59.8397 167.992C57.7285 170.61 56.0084 173.752 54.6435 177.365L60.2564 179.485C61.4415 176.348 62.8714 173.79 64.5102 171.758L59.8397 167.992ZM54.6435 177.365C53.2114 181.156 52.5374 185.506 52.5374 190.35H58.5374C58.5374 186.044 59.1385 182.444 60.2564 179.485L54.6435 177.365ZM52.5374 190.35C52.5374 195.566 53.4212 200.36 55.2495 204.681L60.7753 202.344C59.3037 198.865 58.5374 194.884 58.5374 190.35H52.5374ZM55.2578 204.701C57.0661 208.893 59.5924 212.507 62.8401 215.504L66.9098 211.096C64.3075 208.693 62.2588 205.782 60.7671 202.324L55.2578 204.701ZM62.8994 215.558C66.2081 218.453 70.0722 220.663 74.4542 222.205L76.4457 216.545C72.7277 215.237 69.5417 213.397 66.8505 211.042L62.8994 215.558ZM74.5168 222.226C78.9776 223.686 83.7966 224.4 88.9499 224.4V218.4C84.3533 218.4 80.1723 217.764 76.3831 216.524L74.5168 222.226ZM88.9499 224.4C94.6986 224.4 100.012 223.612 104.861 221.996L102.964 216.304C98.8127 217.688 94.1513 218.4 88.9499 218.4V224.4ZM104.847 222.001C109.908 220.341 114.25 217.546 117.826 213.638L113.399 209.587C110.525 212.729 107.067 214.959 102.978 216.299L104.847 222.001ZM117.826 213.638C121.423 209.706 124.122 204.592 126.017 198.432L120.283 196.668C118.578 202.208 116.252 206.469 113.399 209.587L117.826 213.638ZM126.017 198.432C127.934 192.204 128.85 184.609 128.85 175.725H122.85C122.85 184.241 121.966 191.196 120.283 196.668L126.017 198.432ZM128.85 175.725V136.125H122.85V175.725H128.85ZM125.85 133.125H104.025V139.125H125.85V133.125ZM106.876 137.06L109.126 130.197L103.424 128.328L101.174 135.19L106.876 137.06ZM106.275 132.263H125.85V126.263H106.275V132.263ZM162.75 35.7C158.565 35.7 154.772 37.2586 151.445 40.1474L155.38 44.6776C157.753 42.6165 160.184 41.7 162.75 41.7V35.7ZM151.48 40.1178C148.002 43.0469 145.415 47.7974 143.468 53.8719L149.182 55.7032C150.985 50.0777 153.123 46.5781 155.345 44.7073L151.48 40.1178ZM145.847 57.7493C148.224 58.1326 150.531 58.4403 152.766 58.6716L153.384 52.7035C151.269 52.4847 149.076 52.1924 146.803 51.8258L145.847 57.7493ZM152.766 58.6716C155.032 58.906 157.198 59.025 159.262 59.025V53.025C157.427 53.025 155.468 52.9191 153.384 52.7035L152.766 58.6716ZM159.262 59.025C161.53 59.025 163.627 58.7331 165.475 58.0526L163.4 52.4225C162.398 52.7919 161.044 53.025 159.262 53.025V59.025ZM165.552 58.023C167.331 57.3112 168.905 56.3623 170.159 55.1089L165.916 50.8662C165.37 51.4128 164.544 51.9639 163.323 52.4521L165.552 58.023ZM170.159 55.1089C171.331 53.9363 172.239 52.5853 172.848 51.0642L167.277 48.8359C166.985 49.5647 166.544 50.2387 165.916 50.8662L170.159 55.1089ZM172.848 51.0642C173.429 49.6124 173.737 48.1102 173.737 46.575H167.737C167.737 47.2898 167.596 48.0377 167.277 48.8359L172.848 51.0642ZM173.737 46.575C173.737 43.6269 172.687 41.0196 170.609 38.9412L166.366 43.1839C167.288 44.1055 167.737 45.1731 167.737 46.575H173.737ZM170.66 38.9936C168.551 36.7798 165.833 35.7 162.75 35.7V41.7C164.317 41.7 165.423 42.1953 166.315 43.1315L170.66 38.9936Z" fill="#2E2E2E"/>
</g>
<defs>
<filter id="filter0_d" x="0" y="0" width="204" height="204" filterUnits="userSpaceOnUse" color-interpolation-filters="sRGB">
<feFlood flood-opacity="0" result="BackgroundImageFix"/>
<feColorMatrix in="SourceAlpha" type="matrix" values="0 0 0 0 0 0 0 0 0 0 0 0 0 0 0 0 0 0 127 0"/>
<feOffset dy="6"/>
<feGaussianBlur stdDeviation="6"/>
<feColorMatrix type="matrix" values="0 0 0 0 0.180392 0 0 0 0 0.180392 0 0 0 0 0.180392 0 0 0 0.25 0"/>
<feBlend mode="normal" in2="BackgroundImageFix" result="effect1_dropShadow"/>
<feBlend mode="normal" in="SourceGraphic" in2="effect1_dropShadow" result="shape"/>
</filter>
<filter id="filter1_d" x="9.4874" y="23.5125" width="183.225" height="224.626" filterUnits="userSpaceOnUse" color-interpolation-filters="sRGB">
<feFlood flood-opacity="0" result="BackgroundImageFix"/>
<feColorMatrix in="SourceAlpha" type="matrix" values="0 0 0 0 0 0 0 0 0 0 0 0 0 0 0 0 0 0 127 0"/>
<feOffset dy="6"/>
<feGaussianBlur stdDeviation="6"/>
<feColorMatrix type="matrix" values="0 0 0 0 0.180392 0 0 0 0 0.180392 0 0 0 0 0.180392 0 0 0 0.4 0"/>
<feBlend mode="normal" in2="BackgroundImageFix" result="effect1_dropShadow"/>
<feBlend mode="normal" in="SourceGraphic" in2="effect1_dropShadow" result="shape"/>
</filter>
</defs>
</svg>
